<?xml version="1.0" encoding="UTF-8" standalone="no"?>
<!-- Created with Inkscape (http://www.inkscape.org/) -->

<svg
   version="1.1"
   id="svg1"
   width="1102.6667"
   height="661.33331"
   viewBox="0 0 1102.6667 661.33331"
   sodipodi:docname="logo-spiral-double_o.svg"
   inkscape:version="1.3.2 (091e20e, 2023-11-25, custom)"
   xmlns:inkscape="http://www.inkscape.org/namespaces/inkscape"
   xmlns:sodipodi="http://sodipodi.sourceforge.net/DTD/sodipodi-0.dtd"
   xmlns:xlink="http://www.w3.org/1999/xlink"
   xmlns="http://www.w3.org/2000/svg"
   xmlns:svg="http://www.w3.org/2000/svg">
  <defs
     id="defs1">
    <linearGradient
       id="linearGradient39"
       inkscape:collect="always">
      <stop
         style="stop-color:#ff0000;stop-opacity:1;"
         offset="0"
         id="stop39" />
      <stop
         style="stop-color:#ff0000;stop-opacity:0.74000001;"
         offset="1"
         id="stop41" />
      <stop
         style="stop-color:#ff0000;stop-opacity:0;"
         offset="1"
         id="stop40" />
    </linearGradient>
    <linearGradient
       id="linearGradient35"
       inkscape:collect="always">
      <stop
         style="stop-color:#ff0000;stop-opacity:1;"
         offset="0"
         id="stop35" />
      <stop
         style="stop-color:#ff0000;stop-opacity:0.74000001;"
         offset="1"
         id="stop37" />
      <stop
         style="stop-color:#ff0000;stop-opacity:0;"
         offset="1"
         id="stop36" />
    </linearGradient>
    <filter
       style="color-interpolation-filters:sRGB;"
       inkscape:label="Colorize"
       id="filter3"
       x="0"
       y="0"
       width="1"
       height="1">
      <feComposite
         in2="SourceGraphic"
         operator="arithmetic"
         k1="0"
         k2="1"
         result="composite1"
         id="feComposite2" />
      <feColorMatrix
         in="composite1"
         values="1"
         type="saturate"
         result="colormatrix1"
         id="feColorMatrix2" />
      <feFlood
         flood-opacity="1"
         flood-color="rgb(158,67,0)"
         result="flood1"
         id="feFlood2" />
      <feBlend
         in="flood1"
         in2="colormatrix1"
         mode="multiply"
         result="blend1"
         id="feBlend2" />
      <feBlend
         in2="blend1"
         mode="screen"
         result="blend2"
         id="feBlend3" />
      <feColorMatrix
         in="blend2"
         values="1"
         type="saturate"
         result="colormatrix2"
         id="feColorMatrix3" />
      <feComposite
         in="colormatrix2"
         in2="SourceGraphic"
         operator="in"
         k2="1"
         result="fbSourceGraphic"
         id="feComposite3" />
      <feColorMatrix
         result="fbSourceGraphicAlpha"
         in="fbSourceGraphic"
         values="0 0 0 -1 0 0 0 0 -1 0 0 0 0 -1 0 0 0 0 1 0"
         id="feColorMatrix4" />
      <feComposite
         id="feComposite4"
         in2="fbSourceGraphic"
         operator="arithmetic"
         k1="0"
         k2="1"
         result="composite1"
         in="fbSourceGraphic" />
      <feColorMatrix
         id="feColorMatrix5"
         in="composite1"
         values="1"
         type="saturate"
         result="colormatrix1" />
      <feFlood
         id="feFlood5"
         flood-opacity="1"
         flood-color="rgb(158,67,0)"
         result="flood1" />
      <feBlend
         id="feBlend5"
         in="flood1"
         in2="colormatrix1"
         mode="multiply"
         result="blend1" />
      <feBlend
         id="feBlend6"
         in2="blend1"
         mode="screen"
         result="blend2" />
      <feColorMatrix
         id="feColorMatrix6"
         in="blend2"
         values="1"
         type="saturate"
         result="colormatrix2" />
      <feComposite
         id="feComposite6"
         in="colormatrix2"
         in2="fbSourceGraphic"
         operator="in"
         k2="1"
         result="fbSourceGraphic" />
      <feColorMatrix
         result="fbSourceGraphicAlpha"
         in="fbSourceGraphic"
         values="0 0 0 -1 0 0 0 0 -1 0 0 0 0 -1 0 0 0 0 1 0"
         id="feColorMatrix7" />
      <feComposite
         id="feComposite7"
         in2="fbSourceGraphic"
         operator="arithmetic"
         k1="0"
         k2="1"
         result="composite1"
         in="fbSourceGraphic" />
      <feColorMatrix
         id="feColorMatrix8"
         in="composite1"
         values="1"
         type="saturate"
         result="colormatrix1" />
      <feFlood
         id="feFlood8"
         flood-opacity="1"
         flood-color="rgb(63,29,3)"
         result="flood1" />
      <feBlend
         id="feBlend8"
         in="flood1"
         in2="colormatrix1"
         mode="multiply"
         result="blend1" />
      <feBlend
         id="feBlend9"
         in2="blend1"
         mode="screen"
         result="blend2" />
      <feColorMatrix
         id="feColorMatrix9"
         in="blend2"
         values="1"
         type="saturate"
         result="colormatrix2" />
      <feComposite
         id="feComposite9"
         in="colormatrix2"
         in2="fbSourceGraphic"
         operator="in"
         k2="1"
         result="fbSourceGraphic" />
      <feColorMatrix
         result="fbSourceGraphicAlpha"
         in="fbSourceGraphic"
         values="0 0 0 -1 0 0 0 0 -1 0 0 0 0 -1 0 0 0 0 1 0"
         id="feColorMatrix10" />
      <feComposite
         id="feComposite10"
         in2="fbSourceGraphic"
         operator="arithmetic"
         k1="0"
         k2="1"
         result="composite1"
         in="fbSourceGraphic" />
      <feColorMatrix
         id="feColorMatrix11"
         in="composite1"
         values="1"
         type="saturate"
         result="colormatrix1" />
      <feFlood
         id="feFlood11"
         flood-opacity="1"
         flood-color="rgb(63,3,13)"
         result="flood1" />
      <feBlend
         id="feBlend11"
         in="flood1"
         in2="colormatrix1"
         mode="multiply"
         result="blend1" />
      <feBlend
         id="feBlend12"
         in2="blend1"
         mode="screen"
         result="blend2" />
      <feColorMatrix
         id="feColorMatrix12"
         in="blend2"
         values="1"
         type="saturate"
         result="colormatrix2" />
      <feComposite
         id="feComposite12"
         in="colormatrix2"
         in2="fbSourceGraphic"
         operator="in"
         k2="1"
         result="fbSourceGraphic" />
      <feColorMatrix
         result="fbSourceGraphicAlpha"
         in="fbSourceGraphic"
         values="0 0 0 -1 0 0 0 0 -1 0 0 0 0 -1 0 0 0 0 1 0"
         id="feColorMatrix13" />
      <feComposite
         id="feComposite13"
         in2="fbSourceGraphic"
         operator="arithmetic"
         k1="0"
         k2="1"
         result="composite1"
         in="fbSourceGraphic" />
      <feColorMatrix
         id="feColorMatrix14"
         in="composite1"
         values="1"
         type="saturate"
         result="colormatrix1" />
      <feFlood
         id="feFlood14"
         flood-opacity="1"
         flood-color="rgb(63,3,13)"
         result="flood1" />
      <feBlend
         id="feBlend14"
         in="flood1"
         in2="colormatrix1"
         mode="multiply"
         result="blend1" />
      <feBlend
         id="feBlend15"
         in2="blend1"
         mode="screen"
         result="blend2" />
      <feColorMatrix
         id="feColorMatrix15"
         in="blend2"
         values="1"
         type="saturate"
         result="colormatrix2" />
      <feComposite
         id="feComposite15"
         in="colormatrix2"
         in2="fbSourceGraphic"
         operator="in"
         k2="1"
         result="composite2" />
    </filter>
    <filter
       inkscape:collect="always"
       style="color-interpolation-filters:sRGB"
       id="filter17"
       x="-0.00061386754"
       y="-0.0010217419"
       width="1.0012277"
       height="1.0020435">
      <feGaussianBlur
         inkscape:collect="always"
         stdDeviation="0.28130126"
         id="feGaussianBlur17" />
    </filter>
    <linearGradient
       inkscape:collect="always"
       xlink:href="#linearGradient35"
       id="linearGradient36"
       x1="5.1622892"
       y1="327.91271"
       x2="767.30815"
       y2="327.91271"
       gradientUnits="userSpaceOnUse" />
    <linearGradient
       inkscape:collect="always"
       xlink:href="#linearGradient39"
       id="linearGradient40"
       x1="339.52018"
       y1="331.99971"
       x2="1101.4822"
       y2="331.99971"
       gradientUnits="userSpaceOnUse" />
  </defs>
  <sodipodi:namedview
     id="namedview1"
     pagecolor="#ffffff"
     bordercolor="#000000"
     borderopacity="0.25"
     inkscape:showpageshadow="2"
     inkscape:pageopacity="0.0"
     inkscape:pagecheckerboard="0"
     inkscape:deskcolor="#d1d1d1"
     inkscape:zoom="0.84711728"
     inkscape:cx="607.35392"
     inkscape:cy="371.84934"
     inkscape:window-width="1920"
     inkscape:window-height="1010"
     inkscape:window-x="-6"
     inkscape:window-y="-6"
     inkscape:window-maximized="1"
     inkscape:current-layer="g1" />
  <g
     inkscape:groupmode="layer"
     inkscape:label="Image"
     id="g1">
    <path
       style="fill:#ff0000;opacity:1;filter:url(#filter17);fill-rule:nonzero"
       d="M 746.07732,659.41726 C 687.02254,654.14966 627.89485,631.56045 580.14625,596.02476 551.05576,574.37489 550.07623,573.26187 440.30575,437.12754 383.47241,366.6444 336.67241,308.95786 336.30574,308.93524 c -0.36667,-0.0226 -11.16096,9.27162 -23.98733,20.65387 -12.82636,11.38224 -23.51895,20.10012 -23.76131,19.37306 -1.10725,-3.32175 -33.22562,-159.47091 -32.8809,-159.85633 0.66357,-0.74192 155.29621,50.82572 155.29621,51.78892 0,0.49924 -10.15924,9.84897 -22.5761,20.77718 -12.41686,10.92821 -22.61686,20.38028 -22.66667,21.0046 -0.0498,0.62432 48.83143,62.12432 108.62497,136.66666 77.15471,96.18585 110.96293,137.35033 116.45696,141.79661 25.25433,20.43816 64.02946,41.61892 94.48029,51.60948 31.82104,10.44011 59.72376,14.79211 94.83909,14.79211 139.5719,0 259.75225,-96.87524 292.77415,-235.99999 7.4553,-31.41004 9.6722,-77.0346 5.3578,-110.26504 C 1063.2712,165.80755 984.78995,69.030926 875.38135,31.099302 847.20015,21.328974 813.79055,15.541423 785.57085,15.541423 H 769.63912 V 10.208089 4.8747557 h 12.34153 c 23.3772,0 58.7577,5.3262253 84.4495,12.7131373 53.8033,15.469564 106.5593,47.141149 144.55535,86.782517 25.0661,26.1515 42.9621,51.67611 58.781,83.83767 16.6327,33.81604 26.1787,65.75669 31.2812,104.66666 3.0907,23.56818 2.1054,71.48384 -1.933,94 -12.652,70.54325 -43.4994,129.79418 -93.3685,179.3403 -40.25605,39.99527 -93.73605,70.34587 -147.97465,83.97759 -37.7533,9.4885 -74.6103,12.53245 -111.69423,9.22463 z m 68.89513,-2.57301 c 109.3744,-13.79475 203.98955,-80.76024 252.59605,-178.77927 15.1012,-30.45275 24.031,-57.88697 30.2225,-92.8497 3.5339,-19.95573 4.8721,-62.86534 2.6358,-84.51469 C 1092.381,222.81425 1058.0084,152.10628 1001.8905,98.00205 943.94805,42.138494 870.38905,10.562606 789.11155,6.664605 L 770.97242,5.7946717 v 4.0247233 4.024722 l 23.00003,0.73011 c 42.9887,1.364628 80.1875,11.063515 120.3334,31.374603 31.2832,15.827199 55.3281,33.676204 81.4323,60.44883 46.77345,47.971 75.67645,108.66591 84.67375,177.81042 2.3559,18.10496 2.0158,59.72518 -0.6429,78.66666 -9.4922,67.62729 -38.2757,126.92515 -84.69385,174.48093 -26.0544,26.69292 -50.8197,44.83048 -83.0499,60.82402 -31.0279,15.39692 -60.9445,24.5171 -94.2798,28.74154 -22.6388,2.86893 -68.63143,2.15898 -88.10633,-1.36002 C 686.34487,617.73818 647.44646,602.25046 612.53771,578.93632 584.29496,560.07414 587.68698,563.92137 474.35363,422.20807 416.58597,349.97474 368.04297,289.55556 366.4803,287.94323 l -2.84122,-2.93151 -8.66667,7.44642 c -4.76667,4.09554 -10.61037,9.14086 -12.98601,11.21183 l -4.31935,3.76541 103.12172,127.71968 c 57.34233,71.02037 107.15019,131.48615 112.19617,136.20396 52.89902,49.45868 121.16023,79.79856 195.32088,86.81373 14.9201,1.41135 50.57693,0.70081 66.66663,-1.3285 z M 403.52933,245.98676 c 4.0159,-3.60636 4.91868,-5.06447 3.44308,-5.56105 -58.25777,-19.60543 -148.32595,-49.0028 -148.77126,-48.55749 -0.46644,0.46644 21.46362,108.6383 30.13019,148.61973 l 1.50577,6.94654 54.12457,-48.27987 c 29.76851,-26.55393 56.57395,-50.47947 59.56765,-53.16786 z M 292.79809,653.45606 C 240.13846,647.07148 192.6027,629.69489 149.61952,601.11747 99.418863,567.74149 62.573393,525.87196 36.178363,472.20807 19.545663,438.39203 9.999733,406.45139 4.897183,367.54141 c -3.09066,-23.56818 -2.10534,-71.48384 1.93298,-94 6.20809,-34.61398 14.45335,-60.02203 29.42258,-90.66666 26.47344,-54.19578 69.740367,-102.110039 120.712607,-133.67843 15.57991,-9.649031 45.81296,-24.312848 62.54133,-30.334175 70.05749,-25.2169925 151.60446,-25.2151821 221.59813,0.0049 28.0402,10.103439 60.6568,27.635406 84.69378,45.524331 29.08413,21.645128 30.07269,22.768428 139.84051,158.900014 56.83332,70.48343 103.63332,128.16945 104.00002,128.19116 0.3667,0.0217 11.16103,-9.27328 23.98733,-20.65552 12.8264,-11.38225 23.519,-20.10013 23.7613,-19.37307 1.1073,3.32176 33.2257,159.47091 32.8809,159.85634 -0.6635,0.74191 -155.29622,-50.82573 -155.29622,-51.78893 0,-0.49924 10.15925,-9.84897 22.57611,-20.77718 12.41688,-10.92821 22.61688,-20.38028 22.66668,-21.0046 0.05,-0.62432 -48.83144,-62.12431 -108.62499,-136.66666 C 554.43553,144.88711 520.62731,103.72262 515.13328,99.27634 489.87895,78.838185 451.10382,57.657427 420.65298,47.666867 388.83194,37.226759 360.92925,32.874755 325.81395,32.874755 c -108.58946,0 -206.97004,58.452609 -262.000887,155.667255 -17.70192,31.2713 -31.26517,72.58963 -36.13108,110.06769 -2.66073,20.49338 -2.66073,60.0367 0,80.53009 14.99172,115.46882 93.472917,212.24544 202.881597,250.17706 28.1812,9.77033 61.5908,15.55788 89.81045,15.55788 h 15.93171 v 5.33334 5.33333 l -14.33333,-0.14299 c -7.88334,-0.0787 -21.01178,-0.9527 -29.17432,-1.94235 z m 42.17432,-3.06601 v -3.81801 l -23,-0.73011 C 268.98377,644.4773 231.78491,634.77841 191.63906,614.46733 117.60748,577.01234 60.739393,509.10558 36.774003,429.54141 c -22.34501,-74.1846 -16.2202,-155.38785 16.9291,-224.44759 15.5681,-32.43292 32.57843,-56.8425 57.166657,-82.03334 26.05439,-26.69292 50.81963,-44.830476 83.04986,-60.824013 31.02792,-15.39692 60.9445,-24.5171 94.27981,-28.741545 22.63885,-2.868927 68.63144,-2.158977 88.10631,1.360026 43.29424,7.82303 82.19265,23.310752 117.1014,46.624883 28.24275,18.862179 24.85073,15.014949 138.18408,156.728249 57.76766,72.23333 106.3107,132.65251 107.8733,134.26484 l 2.8413,2.93152 8.6666,-7.44643 c 4.7667,-4.09554 10.6102,-9.1407 12.9856,-11.21149 l 4.319,-3.76506 -101.447,-125.72002 C 611.03418,158.11543 562.59065,98.63458 559.17773,95.081774 540.39606,75.530298 503.45668,49.175761 475.79742,35.593776 428.16692,12.204983 383.03308,1.6863637 330.30574,1.6863637 c -26.26443,0 -41.25328,1.402016 -64,5.9863833 C 167.26187,27.634015 83.123303,92.115364 38.376363,182.35117 c -15.10118,30.45276 -24.03099,57.88697 -30.22247,92.8497 -3.53392,19.95573 -4.87213,62.86534 -2.63574,84.5147 11.76009,113.84336 80.99906,212.71099 183.454247,261.95777 41.90348,20.14161 89.72211,31.65832 134.33334,32.35304 l 11.66667,0.18169 z M 848.30585,468.2765 c 0,-1.57611 -30.8774,-149.76033 -31.7104,-152.18168 -0.8396,-2.44074 -8.0805,3.57854 -59.34553,49.33333 -32.1141,28.66229 -58.21409,52.6725 -58.00003,53.35601 0.35897,1.14619 143.63736,49.73265 147.38926,49.98048 0.9167,0.0606 1.6667,-0.15911 1.6667,-0.48814 z"
       id="path15" />
    <path
       style="opacity:1;fill:#ff0000;fill-rule:nonzero;stroke:#000000;stroke-width:1.18047"
       d="M 282.83318,311.23885 C 270.14749,250.5547 258.92895,193.97961 259.47334,193.43522 c 0.60525,-0.60525 17.12602,4.64854 92.01067,29.26042 29.7025,9.76213 54.25803,18.15948 54.56784,18.66078 0.30982,0.50129 -10.97593,11.2092 -25.07943,23.79535 -14.10352,12.58615 -40.30786,35.9814 -58.23189,51.98945 l -32.58914,29.10554 z"
       id="path17" />
    <path
       style="opacity:1;fill:#ff0000;fill-rule:nonzero;stroke:#000000;stroke-width:1.18047"
       d=""
       id="path18" />
    <path
       style="opacity:1;fill:#ff0000;fill-rule:nonzero;stroke:#000000;stroke-width:1.18047"
       d="m 796.2242,451.62781 c -57.19008,-19.18262 -93.49632,-31.82175 -94.68318,-32.96165 -1.23948,-1.19045 71.6515,-67.52762 102.95207,-93.69539 l 11.2145,-9.37551 1.44841,6.28827 c 4.93771,21.437 29.83416,142.10797 29.83416,144.6036 0,0.86397 -0.40091,1.57085 -0.89093,1.57085 -0.49001,0 -22.93378,-7.39359 -49.87503,-16.43017 z"
       id="path34" />
    <path
       style="opacity:1;fill:url(#linearGradient36);fill-rule:nonzero;stroke:#000000;stroke-width:1.18047"
       d="M 299.25018,652.04668 C 237.86422,645.73308 175.28691,620.23718 126.90096,581.82633 112.67248,570.53115 84.201815,541.58895 73.628852,527.67192 38.416083,481.32188 17.610518,433.00481 8.055832,375.39076 4.9915188,356.91318 5.007594,300.10178 8.082721,280.3626 12.028021,255.03779 17.6451,234.0006 26.679216,210.71462 68.69378,102.41958 164.17154,25.028397 279.37957,5.8839091 306.5342,1.3715355 351.65817,1.4259543 381.29313,6.0068154 411.99638,10.752808 447.18021,22.0321 475.73106,36.281891 c 11.08522,5.532654 30.87393,17.679735 43.64725,26.792372 23.71322,16.917297 34.47867,26.836885 51.97404,47.890297 28.09105,33.80397 195.36557,240.8161 195.36557,241.77649 0,0.29044 -5.53625,5.37505 -12.30276,11.29912 L 742.1124,374.81119 690.37444,310.32563 C 661.91856,274.85856 619.83058,222.39885 596.8456,193.74847 530.48298,111.02867 520.5995,99.767992 504.06244,88.036639 469.4972,63.516143 433.36012,47.099177 393.68811,37.893921 c -23.19834,-5.382803 -29.59378,-5.955264 -66.69679,-5.970076 -31.59028,-0.01261 -37.0076,0.272366 -50.17082,2.639223 -32.11057,5.773747 -53.62492,12.860965 -83.22275,27.415081 -31.7869,15.630549 -57.4506,34.36283 -82.68254,60.351091 -22.544778,23.22055 -37.668327,43.77156 -51.182958,69.55123 -17.415064,33.21988 -28.06911,66.02738 -33.983997,104.64849 -2.845601,18.5803 -2.840147,66.93115 0.0096,85.35441 7.974799,51.55555 24.746161,94.53063 52.462333,134.42991 52.819582,76.03731 140.008512,125.90531 226.342092,129.45711 8.44039,0.34724 18.66625,0.91849 22.72413,1.26945 6.84238,0.59179 7.37796,0.84553 7.37796,3.49534 0,2.85519 -0.009,2.85712 -12.69009,2.70037 -6.97956,-0.0863 -17.20541,-0.62126 -22.72413,-1.18887 z"
       id="path35" />
    <path
       style="opacity:1;fill:#ff0000;fill-rule:nonzero;stroke:#000000;stroke-width:1.18047"
       d=""
       id="path37" />
    <path
       style="opacity:1;fill:url(#linearGradient40);fill-rule:nonzero;stroke:#000000;stroke-width:1.18047"
       d="M 736.61583,656.34141 C 679.5044,648.20461 629.63107,628.54704 584.91362,596.54799 564.67987,582.06906 553.01897,570.84021 532.11259,545.70333 478.70296,481.48606 340.3018,310.13372 340.11358,307.99231 c -0.0754,-0.85758 5.16305,-6.16043 11.64095,-11.78412 l 11.77799,-10.22488 3.98437,4.5676 c 2.1914,2.51219 34.60745,42.76549 72.03567,89.45176 152.54431,190.27697 144.73827,181.32224 175.47444,201.29656 34.27346,22.27309 76.06358,38.51792 115.68646,44.97013 24.33661,3.963 76.51914,3.38949 102.11101,-1.12223 41.07758,-7.24177 83.51267,-24.95935 118.63764,-49.53382 28.77537,-20.1321 59.56869,-51.66203 79.10249,-80.99467 31.5309,-47.34792 48.5684,-98.89163 51.3112,-155.23234 2.6622,-54.68377 -5.4106,-99.20708 -26.6031,-146.72186 C 1031.4278,139.20265 988.51517,90.121885 937.88666,58.405615 921.6063,48.206763 891.33481,34.108987 872.2746,27.849327 844.6832,18.787894 824.25214,15.282562 791.53061,13.996182 L 771.43982,13.206354 V 9.7079437 6.2095333 l 13.87057,0.8000344 c 52.09996,3.0050503 94.26356,13.8341133 136.40931,35.0346113 32.06141,16.127783 56.03465,33.686829 83.5243,61.176781 26.8849,26.88527 44.1848,50.38781 60.2335,81.82938 28.2687,55.38235 39.5054,114.21453 34.0997,178.53568 -6.2043,73.82227 -41.8338,148.28596 -96.3322,201.32899 -49.72613,48.39814 -108.2216,77.9681 -177.50338,89.72944 -19.45388,3.30252 -70.97167,4.28341 -89.12579,1.69696 z"
       id="path39" />
  </g>
</svg>
